<?xml version="1.0"?>
<svg xmlns="http://www.w3.org/2000/svg" id="Flat" viewBox="0 0 64 64" width="512" height="512"><title>Slim icon</title><desc>Slim icon for website, application, printing, document, poster design, etc.</desc><metadata><?xpacket begin="﻿" id="W5M0MpCehiHzreSzNTczkc9d"?><x:xmpmeta xmlns:x="adobe:ns:meta/" x:xmptk="Adobe XMP Core 5.6-c145 79.163499, 2018/08/13-16:40:22        "><rdf:RDF xmlns:rdf="http://www.w3.org/1999/02/22-rdf-syntax-ns#"><rdf:Description xmlns:dc="http://purl.org/dc/elements/1.1/" rdf:about=""><dc:title><rdf:Alt><rdf:li xml:lang="x-default">Slim icon</rdf:li></rdf:Alt></dc:title><dc:description><rdf:Alt><rdf:li xml:lang="x-default">Slim icon for website, application, printing, document, poster design, etc.</rdf:li></rdf:Alt></dc:description><dc:subject><rdf:Bag><rdf:li xml:lang="x-default">Slim</rdf:li><rdf:li>fit</rdf:li><rdf:li>thin</rdf:li><rdf:li>body</rdf:li><rdf:li>healthy</rdf:li><rdf:li>beaty</rdf:li><rdf:li>bikini</rdf:li><rdf:li>reduce</rdf:li></rdf:Bag></dc:subject></rdf:Description></rdf:RDF></x:xmpmeta><?xpacket end="w"?></metadata><g id="Flat_copy" data-name="Flat copy"><rect x="20" y="3" width="24" height="11" style="fill:#fea4a7"/><path d="M46.59,40.25a18.31,18.31,0,0,1-.53-16.78l2.09-4.39c.22-.46.41-.93.59-1.4A11,11,0,0,1,32,13.56a11,11,0,0,1-16.74,4.12c.18.47.37.94.59,1.4l2.09,4.39a18.31,18.31,0,0,1-.53,16.78l-1.79,3.23A18.33,18.33,0,0,0,14,57.2L15,61H49l1-3.8a18.33,18.33,0,0,0-1.66-13.72Z" style="fill:#fea4a7"/><path d="M48.38,43.48l-1.79-3.23a18.31,18.31,0,0,1-.53-16.78h0a5.58,5.58,0,0,0-5.48,4.59,18.24,18.24,0,0,0,2,12.19l1.79,3.23A18.33,18.33,0,0,1,46,57.2a5.17,5.17,0,0,1-5,3.8H49l1-3.8A18.33,18.33,0,0,0,48.38,43.48Z" style="fill:#fee4e5"/><path d="M30,59H23.94a5.15,5.15,0,0,1-5-3.79,18.3,18.3,0,0,1,1.65-13.73l1.79-3.23a18.31,18.31,0,0,0,.53-16.78L22.23,20H22a10.93,10.93,0,0,1-6.74-2.32c.18.47.37.94.59,1.4l2.09,4.39a18.31,18.31,0,0,1-.53,16.78l-1.79,3.23A18.33,18.33,0,0,0,14,57.2L15,61H32A2,2,0,0,0,30,59Z" style="fill:#fe6569"/><path d="M14.14,47c-.07.22-.13.45-.19.67l5.36,3.75a33,33,0,0,1,8.21,8.47L28.28,61h5.44l.76-1.11a33,33,0,0,1,8.21-8.47L49,47Z" style="fill:#fe6569"/><polygon points="55 30 55 27 49 32 55 37 55 34 61 34 61 30 55 30" style="fill:#3cc37f"/><polygon points="9 30 9 27 15 32 9 37 9 34 3 34 3 30 9 30" style="fill:#3cc37f"/><path d="M32,61l-3.48-4a30,30,0,0,0-8.21-6.58L14,47H50l-6.31,3.44A30,30,0,0,0,35.48,57Z" style="fill:#4e80f2"/><path d="M25.5,47H14l6.31,3.44A30,30,0,0,1,28.52,57L32,61l3.48-4c.57-.65,1.17-1.28,1.8-1.88C31.94,53.76,27.64,50.79,25.5,47Z" style="fill:#054def"/><path d="M51.21,3H43.67A24.68,24.68,0,0,1,32.42,9.88L32,10l-.42-.12A24.68,24.68,0,0,1,20.33,3H12.79A11,11,0,1,0,32,13.56,11,11,0,1,0,51.21,3Z" style="fill:#4e80f2"/><path d="M55,27l-4.39,3.66A5,5,0,0,0,54,32h7V30H55Z" style="fill:#7dcda4"/><path d="M9,30H4a5,5,0,0,0,4,2h7L9,27Z" style="fill:#7dcda4"/><path d="M15.85,19.08l1.33,2.81a10.87,10.87,0,0,0,3.25,1A11,11,0,0,0,32,16.56a11,11,0,0,0,11.57,6.33,10.87,10.87,0,0,0,3.25-1l1.33-2.81c.22-.46.41-.93.59-1.4A11,11,0,0,1,32,13.56a11,11,0,0,1-16.74,4.12C15.44,18.15,15.63,18.62,15.85,19.08Z" style="fill:#fe6569"/><path d="M15,9a10.91,10.91,0,0,1,1.79-6h-4a11,11,0,0,0,7.64,16.89A11.25,11.25,0,0,0,24,19.81,11,11,0,0,1,15,9Z" style="fill:#054def"/><path d="M46,19a11,11,0,0,1-11-10,24.12,24.12,0,0,1-2.63.93L32,10l-.42-.12c-.19-.05-.36-.12-.54-.18A11,11,0,0,0,46.63,19C46.42,19,46.21,19,46,19Z" style="fill:#054def"/><path d="M51.21,3H43.67a26.67,26.67,0,0,1-2.12,2h1.69a6.66,6.66,0,0,1,6.69,7.28v.08A11,11,0,0,1,46.48,19a11.07,11.07,0,0,0,6.44-8.68A10.94,10.94,0,0,0,51.21,3Z" style="fill:#98b4f4"/><path d="M32.5,8h0a12.57,12.57,0,0,0-4.29-4.86L28,3h9l-.21.14A12.57,12.57,0,0,0,32.5,8Z" style="fill:#fee4e5"/></g></svg>
