<svg height="512" viewBox="0 0 46 58" width="512" xmlns="http://www.w3.org/2000/svg"><g id="004---Waist-Belt" fill="none"><path id="Shape" d="m39.28 57.5c-.1809725.3077071-.5130515.4947401-.87.49h-30.82c-.355637-.0003249-.68537595-.1860399-.87-.49-5.27-8.73-7.24-20.06-3.58-29.74 1.35-3.57 2.76-7.1 3.86-10.76 1.61787586-5.1450158 1.19907015-10.71477385-1.17-15.56-.1520218-.31026015-.13311748-.6770154.04999849-.97000095.18311596-.29298554.50449969-.47069116.85000151-.46999905h32.54c.3470947-.00466451.6714293.17225911.8554058.4666214.1839764.29436228.2008847.66342737.0445942.9733786-2.3690701 4.84522615-2.7878759 10.4149842-1.17 15.56 1.1 3.66 2.51 7.19 3.86 10.76 3.66 9.68 1.69 21.01-3.58 29.74z" fill="#f9c795"/><path id="Shape" d="m16.85 19.76c-.0503112.5150621-.4824892.9083441-1 .91-3.2059223-.2711438-6.37962625-.8402679-9.48-1.7.22-.63.42-1.27.61-1.91 2.92641164.8301966 5.9276312 1.3694782 8.96 1.61.5498294.0543689.9546789.5392985.91 1.09z" fill="#f9c795"/><path id="Shape" d="m39.63 18.97c-.01.01-.01.01-.02.01-3.0616451.863663-6.1995444 1.4296235-9.37 1.69-.5522847.0497056-1.0402944-.3577153-1.09-.91s.3577153-1.0402944.91-1.09c3.0323688-.2405218 6.0335884-.7798034 8.96-1.61.19.64.39 1.28.61 1.91z" fill="#f9c795"/><path id="Shape" d="m37.98 57.5c-.1520659.2972181-.4561657.485837-.79.49h-28.37c-.33692502-.0022543-.64489982-.1908888-.8-.49-4.85-8.73-6.66-20.06-3.3-29.74 1.25-3.57 2.55-7.1 3.55-10.76 1.49543034-5.1499146 1.11629902-10.66326343-1.07-15.56-.15085589-.2974349-.142328-.65073421.02270273-.94054428s.46452177-.47742204.79729727-.49945572h29.96c.3327755.02203368.6322665.20964565.7972973.49945572.1650307.28981007.1735586.64310938.0227027.94054428-2.1811868 4.89800959-2.5601919 10.4095241-1.07 15.56 1.01 3.66 2.31 7.19 3.55 10.76 3.37 9.68 1.55 21.01-3.3 29.74z" fill="#fdd7ad"/><path id="Shape" d="m24 45v12.99h-2v-12.99c0-.5522847.4477153-1 1-1s1 .4477153 1 1z" fill="#f9c795"/><g fill="#e64c3c"><path id="Shape" d="m46 14c0 2.03-2.14 3.69-6.37 4.97-3.1001188.8608506-6.2739281 1.4299937-9.48 1.7-.5522847.0248528-1.0201471-.4027153-1.045-.955-.0248528-.5522847.4027153-1.0201472.955-1.045 3.0323688-.2405218 6.0335884-.7798034 8.96-1.61h.01c3.67-1.1 4.97-2.34 4.97-3.06 0-.89-1.84-2.26-5.96-3.34-.0033556-.67464929.0300272-1.34898083.1-2.02.0571815.00113284.1141168.00783111.17.02 5.03 1.29 7.69 3.13 7.69 5.34z"/><path id="Shape" d="m16.85 19.76c-.0503112.5150621-.4824892.9083441-1 .91-3.1996621-.2630582-6.36717192-.8289241-9.46-1.69-.01 0-.01 0-.02-.01-4.23-1.28-6.37-2.94-6.37-4.97 0-2.21 2.66-4.05 7.69-5.34.05588315-.01216889.11281849-.01886716.17-.02.06997283.67101917.10335558 1.34535071.1 2.02-4.12 1.08-5.96 2.45-5.96 3.34 0 .72 1.3 1.96 4.97 3.06 2.92507647.8505558 5.9317095 1.3902079 8.97 1.61.5498294.0543689.9546789.5392985.91 1.09z"/><path id="Shape" d="m11 25c-.4139182-.0001206-.784982-.2552355-.9333025-.641667-.14832053-.3864315-.0432388-.8243011.2643025-1.101333l4.174-3.757-4.174-3.757c-.39743233-.3723215-.42386922-.9942086-.059469-1.3989162.3644002-.4047076.985644-.4434206 1.397469-.0870838l5 4.5c.2105167.1896326.3307086.4596666.3307086.743s-.1201919.5533674-.3307086.743c-5.338 4.805-5.132 4.757-5.669 4.757z"/><path id="Shape" d="m35 25c-.538 0-.329.049-5.669-4.757-.2105167-.1896326-.3307086-.4596666-.3307086-.743s.1201919-.5533674.3307086-.743l5-4.5c.411825-.3563368 1.0330688-.3176238 1.397469.0870838s.3379633 1.0265947-.059469 1.3989162l-4.174 3.757 4.174 3.757c.3075413.2770319.412623.7149015.2643025 1.101333s-.5193843.6415464-.9333025.641667z"/></g><ellipse id="Oval" cx="23" cy="20.5" fill="#f9c795" rx="2" ry="2.5"/><path id="Shape" d="m44.4 33.79c-7.343 4.353-13.473 5.25-19.927 12.392-.3761929.4169205-.9114452.6548924-1.473.6548924s-1.0968071-.2379719-1.473-.6548924c-3.2349664-3.4953584-7.16004-6.2814217-11.527-8.182-2.87768517-1.242659-5.68223009-2.6482702-8.4-4.21.26707417-1.9465216.74660159-3.8579246 1.43-5.7 8.686 7.922 31.247 7.929 39.94 0 .6833984 1.8420754 1.1629258 3.7534784 1.43 5.7z" fill="#5d4c72"/></g></svg>